<?xml version="1.0" encoding="UTF-8"?>
<svg version="1.1" xmlns="http://www.w3.org/2000/svg" width="1055" height="275">
<path d="M0 0 C0.85207031 0.76957031 1.70414063 1.53914063 2.58203125 2.33203125 C3.42378906 3.09128906 4.26554688 3.85054687 5.1328125 4.6328125 C20.28971145 19.03540233 29.94424506 37.34351656 35.58203125 57.33203125 C36.0615625 58.9253125 36.0615625 58.9253125 36.55078125 60.55078125 C41.40047807 79.76995012 40.41956154 102.42891755 34.58203125 121.33203125 C34.36772461 122.02925293 34.15341797 122.72647461 33.93261719 123.44482422 C28.19827902 141.41158244 18.41767801 157.47656573 3.58203125 169.33203125 C13.35582286 167.69894202 23.04428987 165.879332 32.69091797 163.60253906 C36.11449759 162.8087328 39.04464593 162.33203125 42.58203125 162.33203125 C42.01668696 169.18946506 41.00795626 175.84114207 39.64453125 182.58203125 C38.02489852 190.8083304 36.64465046 199.01284135 35.58203125 207.33203125 C31.01034306 208.7254766 26.66927569 209.71205638 21.91015625 210.296875 C20.62286621 210.45567139 19.33557617 210.61446777 18.00927734 210.77807617 C16.61693351 210.94250138 15.22451596 211.10630335 13.83203125 211.26953125 C13.11960266 211.3547403 12.40717407 211.43994934 11.67315674 211.52774048 C-138.89378956 229.48000146 -138.89378956 229.48000146 -190.15625 189.4765625 C-213.36929633 170.63753436 -226.6886695 144.97066154 -230.41796875 115.33203125 C-232.13739317 78.55458496 -226.40251652 45.34304366 -202.41796875 16.33203125 C-201.52464844 15.20861328 -201.52464844 15.20861328 -200.61328125 14.0625 C-195.89670754 8.34167974 -190.27969102 3.83664628 -184.41796875 -0.66796875 C-183.26361328 -1.56322266 -183.26361328 -1.56322266 -182.0859375 -2.4765625 C-133.02623815 -38.66540376 -47.13495471 -40.50983662 0 0 Z M-151.41796875 38.33203125 C-167.80650112 56.75932841 -174.61290461 80.51849575 -173.1953125 104.83203125 C-171.6569022 124.49464059 -165.34867422 140.12914504 -151.41796875 154.33203125 C-150.62326172 155.16347656 -150.62326172 155.16347656 -149.8125 156.01171875 C-135.10557443 170.00031119 -113.6846169 173.83959162 -94.1796875 173.5390625 C-77.67455414 172.99632763 -61.47725652 167.63162047 -48.41796875 157.33203125 C-47.61101562 156.71070313 -46.8040625 156.089375 -45.97265625 155.44921875 C-30.51644956 142.63994653 -22.91986155 123.17518868 -20.62890625 103.61962891 C-18.57159423 81.30827051 -21.99336044 58.79463863 -35.41796875 40.33203125 C-35.87816406 39.6875 -36.33835938 39.04296875 -36.8125 38.37890625 C-47.08945865 25.22913783 -63.82465079 18.55524185 -79.78125 15.73828125 C-106.38452706 12.7664866 -131.75819927 19.65093258 -151.41796875 38.33203125 Z " fill="#3C66E4" transform="translate(238.41796875,35.66796875)"/>
<path d="M0 0 C12.58566294 11.84063426 20.59546569 27.09749702 24.84765625 43.73828125 C25.18796875 45.06472656 25.18796875 45.06472656 25.53515625 46.41796875 C31.16185256 73.3792219 25.29621919 103.32019221 10.296875 126.30078125 C-4.71240717 148.01270507 -26.72417336 159.19444585 -52.15234375 163.98828125 C-81.9364455 168.19119384 -112.02379044 164.25315124 -137.08984375 146.80078125 C-155.41831464 132.63662662 -165.50066886 113.24591292 -169.74609375 90.56640625 C-172.51816128 64.44500067 -168.92390979 37.35223399 -153.15234375 15.73828125 C-150.30209779 12.24427284 -147.29021245 8.97384916 -144.15234375 5.73828125 C-143.61351562 5.12597656 -143.0746875 4.51367188 -142.51953125 3.8828125 C-108.8821557 -33.05068779 -36.50080437 -30.59315973 0 0 Z M-100.15234375 31.73828125 C-112.55900287 45.05203101 -114.97886135 63.07023979 -114.5 80.52734375 C-113.79494079 94.27978894 -109.94350882 105.3638019 -99.90234375 115.05078125 C-95.41002888 118.86658846 -90.75991152 121.02405069 -85.15234375 122.73828125 C-84.53359375 122.93164062 -83.91484375 123.125 -83.27734375 123.32421875 C-70.09347336 125.89313467 -58.17774893 122.92657733 -47.15234375 115.73828125 C-36.38507176 107.92467725 -32.11622692 93.46019935 -29.6015625 81.01171875 C-27.60764502 66.48212879 -27.98355947 49.58407198 -35.83984375 36.73828125 C-42.83704598 27.58943934 -50.51947753 22.43223029 -61.83984375 20.2109375 C-75.95086666 18.38552901 -89.62046869 22.12125127 -100.15234375 31.73828125 Z " fill="#3C67E4" transform="translate(845.15234375,88.26171875)"/>
<path d="M0 0 C2.03041428 2.03041428 1.53506592 6.04263531 1.75390625 8.83984375 C1.81907944 9.63596573 1.88425262 10.43208771 1.95140076 11.25233459 C2.08888672 12.94611994 2.2240751 14.64009308 2.35717773 16.33422852 C2.55921942 18.89590573 2.77023468 21.45672377 2.98242188 24.01757812 C3.63223046 32.03031507 4.18981015 39.9537 4 48 C3.30430908 47.82090088 2.60861816 47.64180176 1.8918457 47.45727539 C-5.15091076 45.65303445 -12.2264943 43.99978288 -19.3125 42.375 C-20.25496582 42.15690674 -21.19743164 41.93881348 -22.16845703 41.71411133 C-30.32060955 39.85688728 -38.07849778 38.8191394 -46.4375 38.8125 C-47.24509766 38.80025391 -48.05269531 38.78800781 -48.88476562 38.77539062 C-58.41782915 38.75234535 -68.34718497 40.99284449 -75.67578125 47.484375 C-79.43058166 51.78190467 -81.06146468 55.12532728 -80.875 60.8125 C-78.52623165 74.49662864 -66.67956919 82.90376873 -56.27294922 90.86987305 C-50.17333313 95.56015239 -44.61296605 100.74663902 -39 106 C-37.29593106 107.54637898 -35.58779249 109.08828898 -33.875 110.625 C-33.06546875 111.35332031 -32.2559375 112.08164063 -31.421875 112.83203125 C-29.81245783 114.2727192 -28.19788666 115.70767097 -26.578125 117.13671875 C-24.0274582 119.39901399 -21.5072231 121.68964035 -19 124 C-18.51740723 124.44182617 -18.03481445 124.88365234 -17.53759766 125.33886719 C-6.13291465 135.88150435 5.91216156 150.06516464 7.17700195 166.26733398 C7.46369385 177.86407835 7.65827887 188.1872401 3 199 C2.67257812 199.85207031 2.34515625 200.70414063 2.0078125 201.58203125 C-4.3783316 216.38203674 -18.5068203 226.90630679 -32.89013672 233.17724609 C-44.71118354 237.78693457 -57.30676476 240.09848181 -69.9609375 240.23828125 C-70.70046158 240.24802979 -71.43998566 240.25777832 -72.20191956 240.26782227 C-98.00902869 240.53743444 -121.92611114 237.1713309 -147 231 C-147.43297589 225.79008709 -147.85997501 220.57972911 -148.28173828 215.36889648 C-148.42565364 213.60086249 -148.57112594 211.83295445 -148.71826172 210.06518555 C-150.28393445 191.22918405 -150.28393445 191.22918405 -150 182 C-149.48010498 182.17595703 -148.96020996 182.35191406 -148.42456055 182.53320312 C-133.85220164 187.43168998 -119.16784462 192.33336065 -104 195 C-102.081875 195.3403125 -102.081875 195.3403125 -100.125 195.6875 C-86.63571155 197.00772823 -70.8415142 197.1343872 -59.1875 189.1875 C-55.25959017 185.71914695 -53.43600448 182.05755037 -52.69140625 176.8359375 C-52.29649769 169.87118656 -54.62849606 164.7325301 -59.16821289 159.50170898 C-61.81213588 156.75796727 -64.51349398 154.08884504 -67.25 151.4375 C-68.16652344 150.53064453 -69.08304688 149.62378906 -70.02734375 148.68945312 C-74.66400398 144.12885793 -79.36662915 139.69393672 -84.32275391 135.48168945 C-86.02116814 133.98129993 -87.57450083 132.40163573 -89.125 130.75 C-92.46851292 127.32962471 -96.15553852 124.47292285 -99.9375 121.5625 C-104.68800374 117.90443793 -109.0729394 114.16936305 -113.21484375 109.81640625 C-115.03196062 107.9674799 -116.94137835 106.33986684 -118.9375 104.6875 C-130.76234566 94.39292848 -139.58561774 80.55560511 -141.23364258 64.76074219 C-142.40576392 45.71533187 -137.37623378 30.71003787 -125 16 C-93.68520678 -14.40447946 -38.89144372 -8.54496595 0 0 Z " fill="#3D67E4" transform="translate(646,13)"/>
<path d="M0 0 C66.66 0 133.32 0 202 0 C202 10.91614966 201.95687814 21.73401294 201.5 32.625 C201.45230469 33.8315625 201.40460938 35.038125 201.35546875 36.28125 C201.24013571 39.1876427 201.12165512 42.09386631 201 45 C152.72212148 44.0379072 152.72212148 44.0379072 129 43 C127.54617491 72.870834 126.18642104 102.74488291 124.9375 132.625 C124.89362656 133.67078594 124.84975311 134.71657188 124.80455017 135.79404831 C123.37693959 169.87193201 122.38870726 203.89093775 122 238 C101.87 238 81.74 238 61 238 C61 224.50556232 61 224.50556232 61.31958008 219.77832031 C61.39009079 218.70193802 61.4606015 217.62555573 61.5332489 216.51655579 C61.61122208 215.38187363 61.68919525 214.24719147 61.76953125 213.078125 C61.93658753 210.53313663 62.10340613 207.98813264 62.27001953 205.44311523 C62.35930634 204.09698913 62.44868349 202.75086901 62.53814697 201.40475464 C66.03350879 148.64923869 68.22290051 95.83915639 70 43 C68.92903076 43.06566162 67.85806152 43.13132324 66.75463867 43.19897461 C56.10672658 43.83234498 45.46685565 44.24797175 34.8034668 44.50268555 C32.30312103 44.56272521 29.80293959 44.62775063 27.30273438 44.69335938 C17.53259268 44.94132886 7.77336579 45.05776546 -2 45 C-1.88017597 40.51989125 -1.75585898 36.03993442 -1.62768555 31.56005859 C-1.58483569 30.04153683 -1.54313499 28.52298213 -1.50268555 27.00439453 C-1.44374828 24.79970428 -1.38043637 22.59517258 -1.31640625 20.390625 C-1.29969376 19.73072571 -1.28298126 19.07082642 -1.26576233 18.39093018 C-1.07911231 12.21663628 -0.5156598 6.18791761 0 0 Z " fill="#3C67E4" transform="translate(294,11)"/>
<path d="M0 0 C0.52416992 2.88232422 0.52416992 2.88232422 0.73046875 6.5546875 C0.79068962 7.53986862 0.79068962 7.53986862 0.85212708 8.54495239 C0.97728325 10.65444286 1.08221267 12.76443475 1.1875 14.875 C1.26895099 16.25788557 1.35162066 17.64069994 1.43554688 19.0234375 C1.90105315 27.01789338 2.11116045 34.99074703 2 43 C0.88625 42.74605469 -0.2275 42.49210937 -1.375 42.23046875 C-37.72161054 33.14220714 -37.72161054 33.14220714 -73 42 C-84.33554509 50.30744843 -89.54367194 60.07580416 -92.59375 73.640625 C-94.53141139 89.66359421 -94.98672661 108.46707282 -85 122 C-76.89059602 131.14386098 -65.45409544 135.29390174 -53.5390625 136.2890625 C-38.95095389 136.99567117 -24.54027137 133.51282316 -10.50390625 129.8359375 C-7 129 -7 129 -3 129 C-4.02386653 139.54851963 -5.37398887 150.02670843 -7 160.5 C-7.1659668 161.60400146 -7.33193359 162.70800293 -7.50292969 163.84545898 C-7.66696289 164.87614502 -7.83099609 165.90683105 -8 166.96875 C-8.2165625 168.35223633 -8.2165625 168.35223633 -8.4375 169.76367188 C-9 172 -9 172 -11 174 C-14.098108 174.95021843 -17.31212652 175.43243999 -20.5 176 C-21.47106689 176.17297607 -22.44213379 176.34595215 -23.44262695 176.52416992 C-55.63082402 181.9514427 -90.93090298 183.25276319 -119 164 C-136.89158746 150.23537301 -146.0187776 130.52538706 -149.53271484 108.68969727 C-153.29533266 78.97995689 -148.81319967 47.33315301 -130.68359375 22.875 C-115.98323144 4.47079054 -95.89122789 -4.96596915 -72.63671875 -7.6875 C-52.82553221 -9.27636709 -17.64822739 -11.76548493 0 0 Z " fill="#3D67E4" transform="translate(1039,74)"/>
<path d="M0 0 C0.66 0.33 1.32 0.66 2 1 C-3.28 6.28 -8.56 11.56 -14 17 C-14 12.08113186 -10.31173311 9.3948461 -7 6 C-4.72300284 3.91201998 -2.39497582 1.9550823 0 0 Z " fill="#809CED" transform="translate(923,82)"/>
<path d="M0 0 C0.66 0.33 1.32 0.66 2 1 C-3.28 6.28 -8.56 11.56 -14 17 C-14.66 16.67 -15.32 16.34 -16 16 C-11.03093773 10.1719243 -5.90436923 4.8836671 0 0 Z " fill="#7593EC" transform="translate(51,37)"/>
<path d="M0 0 C0.66 0.33 1.32 0.66 2 1 C-1.3 4.3 -4.6 7.6 -8 11 C-8.66 10.67 -9.32 10.34 -10 10 C-6.66666667 6.66666667 -3.33333333 3.33333333 0 0 Z " fill="#849FEE" transform="translate(528,23)"/>
</svg>
