<svg version="1.1" id="Layer_1" xmlns="http://www.w3.org/2000/svg" xmlns:xlink="http://www.w3.org/1999/xlink" x="0px" y="0px"
	 width="100%" viewBox="0 0 1468 727" enable-background="new 0 0 1468 727" xml:space="preserve">
<path fill="#000000" opacity="1.000000" stroke="none" 
	d="
M853.000000,728.000000 
	C568.698914,728.000000 284.897858,728.000000 1.048393,728.000000 
	C1.048393,485.726471 1.048393,243.452957 1.048393,1.089711 
	C490.217896,1.089711 979.435791,1.089711 1468.826904,1.089711 
	C1468.826904,243.333237 1468.826904,485.666595 1468.826904,728.000000 
	C1263.786011,728.000000 1058.642944,728.000000 853.000000,728.000000 
M408.405487,435.999878 
	C418.100891,435.321411 427.829315,434.946686 437.484192,433.895874 
	C453.438080,432.159576 469.335236,429.906708 485.279663,428.075165 
	C488.026093,427.759674 488.755066,426.838928 489.098663,424.153473 
	C490.133057,416.069183 491.580536,408.036041 492.946655,399.996521 
	C493.943817,394.128448 495.067047,388.281830 496.260529,381.731537 
	C482.464844,384.671936 469.552094,387.424133 455.654327,390.386292 
	C469.669769,378.082916 479.210083,364.192688 485.162354,347.665527 
	C492.649292,326.877167 494.220032,305.720825 489.964905,284.165253 
	C484.823120,258.118073 472.446503,236.388718 451.843506,219.132172 
	C431.541321,202.127594 407.562805,195.165848 382.164856,192.220993 
	C370.950653,190.920715 359.458069,191.849197 348.096344,192.036392 
	C333.923218,192.269882 320.211792,195.383606 306.800873,199.702698 
	C283.157104,207.317322 263.565247,220.768402 248.029617,240.329987 
	C236.701599,254.593582 230.072189,270.730743 225.873001,288.266449 
	C222.709518,301.477112 222.223541,314.845825 223.255737,328.109955 
	C224.134277,339.399933 225.989075,350.940491 229.627975,361.614746 
	C235.504181,378.851929 245.554947,393.687988 259.884277,405.560547 
	C271.600983,415.268433 284.266479,423.140991 298.626099,427.924255 
	C322.645355,435.925262 347.450073,438.246704 372.671661,437.040894 
	C384.255066,436.487122 395.857666,436.334381 408.405487,435.999878 
M925.387146,420.077301 
	C943.763123,433.591583 965.213928,436.803375 987.088013,437.701294 
	C994.989197,438.025604 1003.040833,436.288177 1010.931885,434.949554 
	C1032.601929,431.273468 1051.130371,422.159302 1065.194580,404.484650 
	C1078.623779,387.608276 1085.303345,368.311584 1086.772095,347.263031 
	C1087.441895,337.664886 1086.568115,327.727875 1084.807495,318.238983 
	C1081.059692,298.039093 1071.314209,280.918945 1054.346069,268.865082 
	C1029.610840,251.293564 1001.515686,247.156113 972.228455,251.256775 
	C954.704529,253.710403 937.883972,259.437866 923.952271,271.082703 
	C913.418396,279.887329 904.226990,289.863129 898.890808,302.930695 
	C894.919373,312.656067 892.154541,322.537781 890.786377,333.015686 
	C888.294861,352.097137 890.825806,370.321564 898.449036,387.837341 
	C904.150085,400.936462 913.262512,411.414276 925.387146,420.077301 
M812.055786,294.532288 
	C803.418091,286.901886 794.274353,279.761230 786.283386,271.504822 
	C778.124756,263.075104 777.045288,254.469070 782.994202,246.527832 
	C787.382324,240.669998 793.843689,237.722351 800.450623,236.223709 
	C812.651428,233.456207 825.015259,234.899673 837.124268,237.621536 
	C846.370300,239.699860 855.501892,242.287460 864.960449,244.719482 
	C864.960449,241.763596 865.153870,239.091507 864.926331,236.455750 
	C864.022095,225.981339 862.649292,215.534393 862.147827,205.043930 
	C861.912170,200.112579 862.077148,197.055984 855.489868,196.536285 
	C839.674500,195.288513 823.989197,192.055267 808.171082,191.295013 
	C797.118408,190.763794 785.833252,192.374496 774.829712,194.137787 
	C757.713440,196.880630 742.986755,204.695343 732.132996,218.496826 
	C722.038086,231.333359 718.370544,246.347183 720.138184,262.410156 
	C721.696289,276.568848 728.709534,288.439026 738.806763,298.121796 
	C748.396362,307.317841 759.058228,315.387238 768.805237,324.429901 
	C780.851929,335.606140 792.589111,347.128326 804.176819,358.782684 
	C812.120605,366.772125 810.142578,380.665253 800.749023,387.077209 
	C793.427002,392.075134 785.041504,393.420746 776.608765,393.890564 
	C762.879639,394.655426 749.581055,391.546539 736.511536,387.709656 
	C728.023987,385.217865 719.701538,382.163513 710.767761,379.181885 
	C711.989258,395.553009 713.188904,411.631561 714.398865,427.847961 
	C718.349182,428.777527 722.267578,429.904724 726.261047,430.601440 
	C738.966614,432.818115 751.644775,436.097321 764.437134,436.675629 
	C779.567993,437.359558 795.022461,437.028961 809.949585,434.679199 
	C834.017700,430.890503 853.836487,419.353027 863.596924,395.599365 
	C871.018372,377.537964 870.474243,359.537048 859.937683,342.405792 
	C850.852234,327.633820 836.958679,317.458221 824.951904,305.486053 
	C821.137024,301.682251 816.778442,298.423767 812.055786,294.532288 
M648.528015,237.999252 
	C668.953979,238.604141 689.379944,239.209030 710.407776,239.831741 
	C710.407776,224.533432 710.407776,209.869034 710.407776,195.498962 
	C643.281250,195.498962 576.341614,195.498962 509.084198,195.498962 
	C508.462158,210.272293 507.842194,224.997192 507.210419,240.001816 
	C531.343140,239.302383 554.953491,238.618088 579.000427,237.921143 
	C579.000427,240.157623 579.053589,241.791397 578.992310,243.420853 
	C578.339172,260.777710 577.676025,278.134216 576.998047,295.490112 
	C576.688110,303.422577 576.370178,311.354889 576.001343,319.284760 
	C575.356567,333.149200 574.656860,347.011108 574.003906,360.875214 
	C573.319702,375.404694 572.771240,389.941650 571.943665,404.462830 
	C571.598877,410.513794 570.561401,416.522400 570.079712,422.569489 
	C569.809448,425.962402 570.031128,429.394531 570.031128,432.736877 
	C590.698608,432.736877 610.625244,432.736877 630.811279,432.736877 
	C630.883850,431.698578 630.970642,430.902893 630.990723,430.105469 
	C631.664124,403.248352 632.256836,376.388885 633.024597,349.534485 
	C633.559082,330.841522 634.343201,312.155762 634.995178,293.466064 
	C635.353271,283.203064 635.496643,272.929108 636.058105,262.677704 
	C636.503906,254.536392 637.437683,246.421814 638.180969,237.999252 
	C641.596130,237.999252 644.570435,237.999252 648.528015,237.999252 
M1232.310059,295.013153 
	C1240.086670,296.957062 1247.863281,298.901001 1255.831299,300.892792 
	C1255.908447,299.713837 1256.019165,299.053009 1255.984253,298.399963 
	C1255.332886,286.202606 1254.448608,274.011902 1254.124023,261.806213 
	C1254.019897,257.885742 1252.365356,256.510712 1249.036133,256.009155 
	C1237.906250,254.332413 1226.781128,252.624649 1215.645874,250.984421 
	C1199.801880,248.650558 1184.056641,249.791641 1168.503540,253.081558 
	C1144.250122,258.211884 1126.421997,272.269287 1115.472900,294.270966 
	C1102.141602,321.059418 1100.666016,349.518188 1107.301392,378.234528 
	C1111.448975,396.184296 1120.873291,411.268677 1136.408325,422.173584 
	C1154.575806,434.926422 1174.945557,437.616974 1196.427734,437.136871 
	C1211.284546,436.804810 1225.871704,435.211517 1240.372925,432.102478 
	C1243.592773,431.412109 1244.759033,430.145935 1245.078125,426.973053 
	C1245.616455,421.618896 1246.658936,416.315430 1247.487915,410.990417 
	C1248.708374,403.151398 1249.927612,395.312195 1251.256714,386.770477 
	C1249.213867,387.160217 1247.983398,387.351349 1246.773804,387.632355 
	C1229.448853,391.656372 1212.317505,397.500702 1194.116455,393.973297 
	C1179.432373,391.127563 1167.932129,384.182251 1162.932373,369.054779 
	C1158.729370,356.338135 1158.797974,343.273682 1161.225708,330.491455 
	C1164.477173,313.371521 1173.846069,300.541229 1191.275757,295.038116 
	C1204.643799,290.817413 1218.046875,292.680115 1232.310059,295.013153 
z"/>
<path fill="#3964E4" opacity="1.000000" stroke="none" 
	d="
M407.928528,435.999817 
	C395.857666,436.334381 384.255066,436.487122 372.671661,437.040894 
	C347.450073,438.246704 322.645355,435.925262 298.626099,427.924255 
	C284.266479,423.140991 271.600983,415.268433 259.884277,405.560547 
	C245.554947,393.687988 235.504181,378.851929 229.627975,361.614746 
	C225.989075,350.940491 224.134277,339.399933 223.255737,328.109955 
	C222.223541,314.845825 222.709518,301.477112 225.873001,288.266449 
	C230.072189,270.730743 236.701599,254.593582 248.029617,240.329987 
	C263.565247,220.768402 283.157104,207.317322 306.800873,199.702698 
	C320.211792,195.383606 333.923218,192.269882 348.096344,192.036392 
	C359.458069,191.849197 370.950653,190.920715 382.164856,192.220993 
	C407.562805,195.165848 431.541321,202.127594 451.843506,219.132172 
	C472.446503,236.388718 484.823120,258.118073 489.964905,284.165253 
	C494.220032,305.720825 492.649292,326.877167 485.162354,347.665527 
	C479.210083,364.192688 469.669769,378.082916 455.654327,390.386292 
	C469.552094,387.424133 482.464844,384.671936 496.260529,381.731537 
	C495.067047,388.281830 493.943817,394.128448 492.946655,399.996521 
	C491.580536,408.036041 490.133057,416.069183 489.098663,424.153473 
	C488.755066,426.838928 488.026093,427.759674 485.279663,428.075165 
	C469.335236,429.906708 453.438080,432.159576 437.484192,433.895874 
	C427.829315,434.946686 418.100891,435.321411 407.928528,435.999817 
M335.308350,238.918381 
	C332.982635,239.618149 330.593048,240.155777 328.341370,241.043396 
	C310.651917,248.016769 297.700806,260.329651 289.453339,277.246643 
	C280.369080,295.880066 278.494873,315.777161 282.097748,336.005127 
	C286.667145,361.659393 301.581146,379.099335 326.069550,387.996643 
	C339.027496,392.704529 352.364075,393.979065 366.216492,392.149292 
	C382.986084,389.934143 397.883362,383.875092 410.052063,372.280670 
	C425.856873,357.221710 431.460449,337.527374 432.905762,316.486694 
	C433.673645,305.307556 432.390472,294.240753 429.073639,283.392059 
	C424.651031,268.926514 417.347626,256.466461 404.611755,247.990021 
	C383.365143,233.849197 360.239044,231.885361 335.308350,238.918381 
z"/>
<path fill="#3964E4" opacity="1.000000" stroke="none" 
	d="
M925.029724,420.005249 
	C913.262512,411.414276 904.150085,400.936462 898.449036,387.837341 
	C890.825806,370.321564 888.294861,352.097137 890.786377,333.015686 
	C892.154541,322.537781 894.919373,312.656067 898.890808,302.930695 
	C904.226990,289.863129 913.418396,279.887329 923.952271,271.082703 
	C937.883972,259.437866 954.704529,253.710403 972.228455,251.256775 
	C1001.515686,247.156113 1029.610840,251.293564 1054.346069,268.865082 
	C1071.314209,280.918945 1081.059692,298.039093 1084.807495,318.238983 
	C1086.568115,327.727875 1087.441895,337.664886 1086.772095,347.263031 
	C1085.303345,368.311584 1078.623779,387.608276 1065.194580,404.484650 
	C1051.130371,422.159302 1032.601929,431.273468 1010.931885,434.949554 
	C1003.040833,436.288177 994.989197,438.025604 987.088013,437.701294 
	C965.213928,436.803375 943.763123,433.591583 925.029724,420.005249 
M1031.000244,334.697998 
	C1030.399536,325.997559 1029.006958,317.334717 1024.259766,309.957458 
	C1017.071533,298.786926 1006.783875,293.280518 993.040039,292.801483 
	C972.309998,292.078888 956.704163,301.937561 949.983826,321.585571 
	C945.355774,335.116333 944.804688,348.982086 947.155518,362.893036 
	C949.080994,374.286621 954.505554,383.963043 964.695618,390.075562 
	C973.833313,395.556885 983.654846,397.082153 994.393860,395.186584 
	C1008.097839,392.767670 1017.858887,385.660767 1023.849670,373.362549 
	C1029.633545,361.489044 1031.586914,348.787384 1031.000244,334.697998 
z"/>
<path fill="#3964E4" opacity="1.000000" stroke="none" 
	d="
M812.362244,294.724060 
	C816.778442,298.423767 821.137024,301.682251 824.951904,305.486053 
	C836.958679,317.458221 850.852234,327.633820 859.937683,342.405792 
	C870.474243,359.537048 871.018372,377.537964 863.596924,395.599365 
	C853.836487,419.353027 834.017700,430.890503 809.949585,434.679199 
	C795.022461,437.028961 779.567993,437.359558 764.437134,436.675629 
	C751.644775,436.097321 738.966614,432.818115 726.261047,430.601440 
	C722.267578,429.904724 718.349182,428.777527 714.398865,427.847961 
	C713.188904,411.631561 711.989258,395.553009 710.767761,379.181885 
	C719.701538,382.163513 728.023987,385.217865 736.511536,387.709656 
	C749.581055,391.546539 762.879639,394.655426 776.608765,393.890564 
	C785.041504,393.420746 793.427002,392.075134 800.749023,387.077209 
	C810.142578,380.665253 812.120605,366.772125 804.176819,358.782684 
	C792.589111,347.128326 780.851929,335.606140 768.805237,324.429901 
	C759.058228,315.387238 748.396362,307.317841 738.806763,298.121796 
	C728.709534,288.439026 721.696289,276.568848 720.138184,262.410156 
	C718.370544,246.347183 722.038086,231.333359 732.132996,218.496826 
	C742.986755,204.695343 757.713440,196.880630 774.829712,194.137787 
	C785.833252,192.374496 797.118408,190.763794 808.171082,191.295013 
	C823.989197,192.055267 839.674500,195.288513 855.489868,196.536285 
	C862.077148,197.055984 861.912170,200.112579 862.147827,205.043930 
	C862.649292,215.534393 864.022095,225.981339 864.926331,236.455750 
	C865.153870,239.091507 864.960449,241.763596 864.960449,244.719482 
	C855.501892,242.287460 846.370300,239.699860 837.124268,237.621536 
	C825.015259,234.899673 812.651428,233.456207 800.450623,236.223709 
	C793.843689,237.722351 787.382324,240.669998 782.994202,246.527832 
	C777.045288,254.469070 778.124756,263.075104 786.283386,271.504822 
	C794.274353,279.761230 803.418091,286.901886 812.362244,294.724060 
z"/>
<path fill="#3964E4" opacity="1.000000" stroke="none" 
	d="
M648.036377,237.999252 
	C644.570435,237.999252 641.596130,237.999252 638.180969,237.999252 
	C637.437683,246.421814 636.503906,254.536392 636.058105,262.677704 
	C635.496643,272.929108 635.353271,283.203064 634.995178,293.466064 
	C634.343201,312.155762 633.559082,330.841522 633.024597,349.534485 
	C632.256836,376.388885 631.664124,403.248352 630.990723,430.105469 
	C630.970642,430.902893 630.883850,431.698578 630.811279,432.736877 
	C610.625244,432.736877 590.698608,432.736877 570.031128,432.736877 
	C570.031128,429.394531 569.809448,425.962402 570.079712,422.569489 
	C570.561401,416.522400 571.598877,410.513794 571.943665,404.462830 
	C572.771240,389.941650 573.319702,375.404694 574.003906,360.875214 
	C574.656860,347.011108 575.356567,333.149200 576.001343,319.284760 
	C576.370178,311.354889 576.688110,303.422577 576.998047,295.490112 
	C577.676025,278.134216 578.339172,260.777710 578.992310,243.420853 
	C579.053589,241.791397 579.000427,240.157623 579.000427,237.921143 
	C554.953491,238.618088 531.343140,239.302383 507.210419,240.001816 
	C507.842194,224.997192 508.462158,210.272293 509.084198,195.498962 
	C576.341614,195.498962 643.281250,195.498962 710.407776,195.498962 
	C710.407776,209.869034 710.407776,224.533432 710.407776,239.831741 
	C689.379944,239.209030 668.953979,238.604141 648.036377,237.999252 
z"/>
<path fill="#3964E4" opacity="1.000000" stroke="none" 
	d="
M1231.873291,295.006256 
	C1218.046875,292.680115 1204.643799,290.817413 1191.275757,295.038116 
	C1173.846069,300.541229 1164.477173,313.371521 1161.225708,330.491455 
	C1158.797974,343.273682 1158.729370,356.338135 1162.932373,369.054779 
	C1167.932129,384.182251 1179.432373,391.127563 1194.116455,393.973297 
	C1212.317505,397.500702 1229.448853,391.656372 1246.773804,387.632355 
	C1247.983398,387.351349 1249.213867,387.160217 1251.256714,386.770477 
	C1249.927612,395.312195 1248.708374,403.151398 1247.487915,410.990417 
	C1246.658936,416.315430 1245.616455,421.618896 1245.078125,426.973053 
	C1244.759033,430.145935 1243.592773,431.412109 1240.372925,432.102478 
	C1225.871704,435.211517 1211.284546,436.804810 1196.427734,437.136871 
	C1174.945557,437.616974 1154.575806,434.926422 1136.408325,422.173584 
	C1120.873291,411.268677 1111.448975,396.184296 1107.301392,378.234528 
	C1100.666016,349.518188 1102.141602,321.059418 1115.472900,294.270966 
	C1126.421997,272.269287 1144.250122,258.211884 1168.503540,253.081558 
	C1184.056641,249.791641 1199.801880,248.650558 1215.645874,250.984421 
	C1226.781128,252.624649 1237.906250,254.332413 1249.036133,256.009155 
	C1252.365356,256.510712 1254.019897,257.885742 1254.124023,261.806213 
	C1254.448608,274.011902 1255.332886,286.202606 1255.984253,298.399963 
	C1256.019165,299.053009 1255.908447,299.713837 1255.831299,300.892792 
	C1247.863281,298.901001 1240.086670,296.957062 1231.873291,295.006256 
z"/>
<path fill="#000000" opacity="1.000000" stroke="none" 
	d="
M335.664764,238.706848 
	C360.239044,231.885361 383.365143,233.849197 404.611755,247.990021 
	C417.347626,256.466461 424.651031,268.926514 429.073639,283.392059 
	C432.390472,294.240753 433.673645,305.307556 432.905762,316.486694 
	C431.460449,337.527374 425.856873,357.221710 410.052063,372.280670 
	C397.883362,383.875092 382.986084,389.934143 366.216492,392.149292 
	C352.364075,393.979065 339.027496,392.704529 326.069550,387.996643 
	C301.581146,379.099335 286.667145,361.659393 282.097748,336.005127 
	C278.494873,315.777161 280.369080,295.880066 289.453339,277.246643 
	C297.700806,260.329651 310.651917,248.016769 328.341370,241.043396 
	C330.593048,240.155777 332.982635,239.618149 335.664764,238.706848 
z"/>
<path fill="#000000" opacity="1.000000" stroke="none" 
	d="
M1031.000244,335.176025 
	C1031.586914,348.787384 1029.633545,361.489044 1023.849670,373.362549 
	C1017.858887,385.660767 1008.097839,392.767670 994.393860,395.186584 
	C983.654846,397.082153 973.833313,395.556885 964.695618,390.075562 
	C954.505554,383.963043 949.080994,374.286621 947.155518,362.893036 
	C944.804688,348.982086 945.355774,335.116333 949.983826,321.585571 
	C956.704163,301.937561 972.309998,292.078888 993.040039,292.801483 
	C1006.783875,293.280518 1017.071533,298.786926 1024.259766,309.957458 
	C1029.006958,317.334717 1030.399536,325.997559 1031.000244,335.176025 
z"/>
</svg>